<?xml version="1.0" encoding="UTF-8" standalone="no"?>
<svg
   xmlns:dc="http://purl.org/dc/elements/1.1/"
   xmlns:cc="http://creativecommons.org/ns#"
   xmlns:rdf="http://www.w3.org/1999/02/22-rdf-syntax-ns#"
   xmlns:svg="http://www.w3.org/2000/svg"
   xmlns="http://www.w3.org/2000/svg"
   xmlns:sodipodi="http://sodipodi.sourceforge.net/DTD/sodipodi-0.dtd"
   xmlns:inkscape="http://www.inkscape.org/namespaces/inkscape"
   width="92.237122mm"
   height="92.236877mm"
   viewBox="0 0 92.237122 92.236877"
   version="1.1"
   id="svg8"
   inkscape:version="1.0.1 (3bc2e813f5, 2020-09-07)"
   sodipodi:docname="dns.svg">
  <defs
     id="defs2" />
  <sodipodi:namedview
     id="base"
     pagecolor="#ffffff"
     bordercolor="#666666"
     borderopacity="1.0"
     inkscape:pageopacity="0.0"
     inkscape:pageshadow="2"
     inkscape:zoom="1.4142136"
     inkscape:cx="143.4206"
     inkscape:cy="211.55166"
     inkscape:document-units="mm"
     inkscape:current-layer="layer1"
     inkscape:document-rotation="0"
     showgrid="false"
     inkscape:lockguides="false"
     inkscape:window-width="1920"
     inkscape:window-height="1017"
     inkscape:window-x="-8"
     inkscape:window-y="-8"
     inkscape:window-maximized="1" />
  <metadata
     id="metadata5">
    <rdf:RDF>
      <cc:Work
         rdf:about="">
        <dc:format>image/svg+xml</dc:format>
        <dc:type
           rdf:resource="http://purl.org/dc/dcmitype/StillImage" />
        <dc:title></dc:title>
      </cc:Work>
    </rdf:RDF>
  </metadata>
  <g
     inkscape:label="Layer 1"
     inkscape:groupmode="layer"
     id="layer1"
     style="display:inline"
     transform="translate(-43.038612,-121.18914)">
    <path
       id="path1162"
       style="color:#000000;font-style:normal;font-variant:normal;font-weight:normal;font-stretch:normal;font-size:medium;line-height:normal;font-family:sans-serif;font-variant-ligatures:normal;font-variant-position:normal;font-variant-caps:normal;font-variant-numeric:normal;font-variant-alternates:normal;font-variant-east-asian:normal;font-feature-settings:normal;font-variation-settings:normal;text-indent:0;text-align:start;text-decoration:none;text-decoration-line:none;text-decoration-style:solid;text-decoration-color:#000000;letter-spacing:normal;word-spacing:normal;text-transform:none;writing-mode:lr-tb;direction:ltr;text-orientation:mixed;dominant-baseline:auto;baseline-shift:baseline;text-anchor:start;white-space:normal;shape-padding:0;shape-margin:0;inline-size:0;clip-rule:nonzero;display:inline;overflow:visible;visibility:visible;opacity:1;isolation:auto;mix-blend-mode:normal;color-interpolation:sRGB;color-interpolation-filters:linearRGB;solid-color:#000000;solid-opacity:1;vector-effect:none;fill:#000000;fill-opacity:1;fill-rule:nonzero;stroke:none;stroke-width:8.00002;stroke-linecap:butt;stroke-linejoin:round;stroke-miterlimit:4;stroke-dasharray:none;stroke-dashoffset:0;stroke-opacity:1;color-rendering:auto;image-rendering:auto;shape-rendering:auto;text-rendering:auto;enable-background:accumulate;stop-color:#000000;stop-opacity:1"
       d="m 89.157137,121.18916 c -14.945757,0 -28.242759,7.12958 -36.673063,18.16911 l -0.154195,-0.0117 c -0.0058,0.0763 -0.008,0.1521 -0.0095,0.22783 -5.825244,7.72139 -9.281767,17.3276 -9.281767,27.73329 0,7.03799 1.581657,13.70997 4.407326,19.6808 0.204948,0.77236 0.587787,1.50028 1.088426,2.15231 7.791745,14.45189 23.070272,24.28522 40.622803,24.28522 17.552273,0 32.830723,-9.83298 40.622573,-24.28451 0.51117,-0.66296 0.9003,-1.3963 1.10225,-2.18162 2.81718,-5.96353 4.39374,-12.62545 4.39374,-19.6522 0,-10.26203 -3.36168,-19.74658 -9.04178,-27.4125 0.004,-0.0745 0.007,-0.14914 0.007,-0.2245 h -0.17398 c -8.41688,-11.21736 -21.82359,-18.48155 -36.909953,-18.48155 z m 0,3.68949 c 0.0112,0 0.14485,-0.0109 0.51073,0.35653 0.36587,0.36744 0.85676,1.07637 1.33938,2.07819 0.96523,2.00364 1.92325,5.14002 2.72118,9.05607 0.62822,3.08314 1.16378,6.66023 1.58438,10.59708 -4.07155,0.18903 -8.24604,0.18469 -12.309911,-0.0121 0.42041,-3.93208 0.955371,-7.50494 1.582951,-10.58492 0.79792,-3.91605 1.7569,-7.05244 2.72213,-9.05608 0.48262,-1.00182 0.97256,-1.71075 1.33843,-2.07819 0.36588,-0.36743 0.49956,-0.35653 0.51073,-0.35653 z m -5.18688,0.86369 c -1.187069,2.47421 -2.167741,5.81047 -2.999074,9.89044 -0.664572,3.26156 -1.222558,6.99898 -1.656114,11.08708 -2.671712,-0.21136 -5.264305,-0.50858 -7.710019,-0.89348 -1.58545,-0.24952 -3.071234,-0.53136 -4.450941,-0.83747 1.11683,-2.93171 2.443018,-5.62095 3.939497,-8.00793 3.564499,-5.68558 8.010186,-9.60004 12.876651,-11.23864 z m 10.37472,2.4e-4 c 4.86644,1.63875 9.312553,5.5531 12.876883,11.23841 1.50506,2.40065 2.83764,5.10714 3.95833,8.05845 -1.48868,0.3244 -3.09914,0.62032 -4.81963,0.87894 -2.34673,0.35275 -4.81817,0.62669 -7.358493,0.82222 -0.43369,-4.09619 -0.99233,-7.84076 -1.65802,-11.10781 -0.83132,-4.07987 -1.81205,-7.41602 -2.99907,-9.89021 z m 10.012233,1.93448 c 6.99783,2.68131 13.09912,7.16223 17.7437,12.87664 -0.0651,0.0731 -0.13656,0.14899 -0.22117,0.23118 -0.57859,0.56208 -1.60259,1.23564 -3.01027,1.87537 -1.12841,0.51282 -2.50172,1.00759 -4.08392,1.46903 -1.2322,-3.3139 -2.723,-6.37264 -4.43807,-9.10827 -1.76055,-2.80819 -3.77392,-5.28687 -5.99027,-7.34395 z m -30.400141,2.4e-4 c -2.216304,2.05707 -4.229513,4.53558 -5.990036,7.34372 -1.703724,2.71754 -3.186286,5.75388 -4.413761,9.04249 -1.640156,-0.48791 -3.046595,-1.01099 -4.180442,-1.55078 -1.348885,-0.64215 -2.305906,-1.31275 -2.818419,-1.85297 -0.0884,-0.0932 -0.158558,-0.17605 -0.221404,-0.25476 4.629335,-5.6438 10.686788,-10.06953 17.624062,-12.7277 z m -19.873364,15.73033 c 0.95809,0.94188 2.199599,1.7211 3.70308,2.43686 1.321077,0.62893 2.855349,1.20378 4.583208,1.72428 -0.953106,3.15224 -1.679589,6.49885 -2.156594,9.98887 a 5.7653907,5.7653907 0 0 1 2.256214,-0.45996 h 1.54434 c 0.459067,-3.00402 1.112499,-5.88187 1.938527,-8.59159 1.576058,0.35765 3.269739,0.68001 5.078923,0.96474 2.533034,0.39865 5.198272,0.70711 7.935476,0.92708 -0.209183,2.50856 -0.371957,5.12939 -0.485944,7.83586 a 5.7653905,5.7653905 0 0 1 3.435918,-1.13609 h 0.311489 c 0.108652,-2.22388 0.249795,-4.38438 0.423741,-6.45978 4.297924,0.21644 8.705764,0.22122 13.011304,0.0126 0.17348,2.07168 0.31485,4.22691 0.42278,6.44715 h 1.32008 a 5.7653905,5.7653905 0 0 1 2.39897,0.52312 c -0.11143,-2.48215 -0.26325,-4.89095 -0.45568,-7.20287 2.598673,-0.20347 5.135293,-0.48712 7.559643,-0.85153 1.95305,-0.29357 3.77703,-0.63112 5.4693,-1.00907 0.85911,2.82825 1.53261,5.83755 1.99096,8.98363 0.87084,0.22005 1.71185,0.48619 2.53005,0.82126 a 5.7653904,5.7653904 0 0 1 1.40468,0.82413 c -0.45734,-4.05509 -1.24996,-7.93031 -2.34011,-11.55085 1.6569,-0.49006 3.13996,-1.02909 4.43212,-1.61632 1.59539,-0.72503 2.91089,-1.51725 3.93067,-2.47118 3.62427,5.35816 6.05403,11.5916 6.91307,18.31997 h -0.0348 c 0,0.50141 -0.22563,1.10693 -1.01144,1.90874 -0.78582,0.8018 -2.10399,1.70181 -3.89207,2.55531 -1.60533,0.76626 -3.58888,1.49718 -5.89042,2.16779 a 5.7653904,5.7653904 0 0 1 -0.3725,1.32913 c 0.37882,0.76797 0.65942,1.57517 0.84462,2.38324 2.68335,-0.7544 5.03164,-1.60708 7.0072,-2.55006 1.42338,-0.67941 2.6589,-1.40332 3.69426,-2.20426 -0.0227,6.55785 -1.52918,12.76175 -4.20093,18.29542 h -0.0358 c 0,0.0269 -0.003,0.0558 -0.005,0.0839 -0.19791,0.40763 -0.40155,0.81193 -0.61201,1.21212 -0.0743,0.085 -0.15577,0.17303 -0.24762,0.26501 -0.69497,0.69603 -1.88316,1.4962 -3.50384,2.2555 -2.23332,1.04633 -5.2704,2.02488 -8.95264,2.84392 1.21564,-2.92669 2.22067,-6.07744 2.98739,-9.40307 -0.11233,0.0911 -0.22552,0.18042 -0.3408,0.26549 a 5.7653904,5.7653904 0 0 1 -0.005,0.003 c -1.24966,0.92045 -2.62129,1.56623 -4.05914,1.99406 -0.82285,2.85453 -1.83296,5.53309 -3.00169,7.99124 -0.31293,0.0518 -0.62731,0.10325 -0.94686,0.15277 -3.32921,0.5159 -6.8775,0.88752 -10.522013,1.11798 0.44217,-2.82221 0.81415,-5.90083 1.10869,-9.17667 a 5.7653905,5.7653905 0 0 1 -1.84153,0.3022 h -1.89539 c -0.30634,3.26416 -0.68955,6.30873 -1.13967,9.06084 -3.46091,0.12453 -6.96953,0.12473 -10.42834,0 -0.450274,-2.75319 -0.834798,-5.79583 -1.141337,-9.06084 h -0.884659 a 5.7653905,5.7653905 0 0 1 -2.892539,-0.77861 c 0.301006,3.45446 0.688201,6.69381 1.15182,9.6526 -3.896626,-0.24657 -7.680175,-0.65458 -11.200276,-1.2257 -0.09078,-0.0147 -0.178607,-0.0304 -0.268829,-0.0453 -1.115575,-2.34631 -2.086306,-4.89377 -2.888011,-7.60301 H 62.46934 a 5.7653907,5.7653907 0 0 1 -0.504293,-0.0219 c 0.653593,2.36499 1.430868,4.62921 2.321275,6.77317 -3.888795,-0.86552 -7.057197,-1.9083 -9.315609,-3.01671 -1.554554,-0.76296 -2.668041,-1.56103 -3.289586,-2.23643 -0.03829,-0.0416 -0.06912,-0.0796 -0.103671,-0.1194 -0.209477,-0.39858 -0.412114,-0.80116 -0.609156,-1.20711 -0.0027,-0.0554 -0.0027,-0.10971 0.0012,-0.16254 l -0.08294,-0.006 c -2.644632,-5.51068 -4.134646,-11.68282 -4.157324,-18.20486 0.921237,0.712 2.001787,1.36276 3.231435,1.97762 1.892644,0.94637 4.152607,1.80345 6.743855,2.56579 v -3.86513 c -1.985312,-0.62807 -3.695705,-1.30218 -5.093699,-2.00121 -1.716206,-0.85815 -2.953266,-1.75701 -3.659704,-2.53911 -0.706438,-0.78209 -0.87405,-1.3348 -0.837709,-1.84033 l -0.02502,-0.002 c 0.879657,-6.74379 3.338433,-12.9871 6.995048,-18.34666 z m 60.456615,36.98884 c -0.0141,0.0136 -0.0299,0.0206 -0.0441,0.0341 -0.0113,0.0107 -0.0174,0.0246 -0.0288,0.0353 z m -58.481385,13.4746 c 2.815526,1.06535 6.228938,1.97242 10.177866,2.70546 0.54838,1.04313 1.124698,2.05084 1.730232,3.0167 1.760857,2.80868 3.774425,5.28796 5.991227,7.34539 -7.07587,-2.71103 -13.235718,-7.26198 -17.899325,-13.06755 z m 66.195215,0.002 c -4.66347,5.80478 -10.82309,10.35494 -17.89837,13.06564 2.2169,-2.05747 4.23078,-4.53685 5.9917,-7.34563 0.60565,-0.96603 1.18224,-1.97384 1.73071,-3.01718 3.94129,-0.73166 7.35958,-1.63792 10.17596,-2.70283 z m -14.84354,3.4526 c -0.063,0.1026 -0.1251,0.20687 -0.18875,0.30839 -3.56427,5.68522 -8.010293,9.59961 -12.876643,11.23841 1.18696,-2.47417 2.16754,-5.81025 2.99883,-9.88997 0.0474,-0.23282 0.094,-0.46883 0.14037,-0.7064 3.402823,-0.19561 6.738523,-0.51225 9.926193,-0.95043 z m -36.505042,0.001 c 3.184832,0.4379 6.520794,0.75505 9.925481,0.95067 0.04627,0.23708 0.09279,0.47262 0.140134,0.70496 0.831313,4.07988 1.812044,7.41602 2.999074,9.89021 -4.866465,-1.6386 -9.312152,-5.55306 -12.876651,-11.23864 -0.0634,-0.10113 -0.125252,-0.205 -0.188038,-0.3072 z m 22.781389,1.11702 c -0.78962,3.82278 -1.73098,6.88769 -2.67971,8.85708 -0.48262,1.00181 -0.97351,1.71146 -1.33938,2.0789 -0.36588,0.36743 -0.49956,0.35653 -0.51073,0.35653 -0.0112,0 -0.14485,0.0109 -0.51073,-0.35653 -0.36587,-0.36744 -0.85581,-1.07709 -1.33843,-2.0789 -0.94871,-1.96935 -1.89102,-5.03417 -2.68066,-8.85684 3.01002,0.0927 6.04812,0.0926 9.05964,-2.4e-4 z" />
    <g
       aria-label="DNS"
       id="text1142"
       style="font-style:normal;font-weight:normal;font-size:23.4282px;line-height:1.25;font-family:sans-serif;display:inline;fill:#000000;fill-opacity:1;stroke:none;stroke-width:20;stroke-linejoin:round;stroke-miterlimit:4;stroke-dasharray:none;stroke-opacity:1;paint-order:markers stroke fill">
      <path
         d="m 78.565345,171.39632 q 0,2.37942 -1.086757,4.26695 -1.086757,1.87609 -2.745492,2.88277 -1.246911,0.75501 -2.734053,1.05244 -1.487141,0.29742 -3.523381,0.29742 h -6.005764 v -17.03349 h 6.177357 q 2.081998,0 3.592019,0.35463 1.51002,0.34319 2.53958,0.9838 1.761691,1.07532 2.768371,2.90565 1.01812,1.81889 1.01812,4.28983 z m -4.541501,-0.0343 q 0,-1.68161 -0.617736,-2.87133 -0.606296,-1.20115 -1.933284,-1.87608 -0.674934,-0.33175 -1.384186,-0.44615 -0.697812,-0.12583 -2.116317,-0.12583 h -1.109636 v 10.66166 h 1.109636 q 1.567219,0 2.29935,-0.13727 0.732131,-0.14872 1.429944,-0.52622 1.201153,-0.68638 1.761691,-1.83033 0.560538,-1.1554 0.560538,-2.84845 z"
         style="font-style:normal;font-variant:normal;font-weight:bold;font-stretch:normal;font-size:23.4282px;font-family:sans-serif;-inkscape-font-specification:'sans-serif Bold';stroke:none;stroke-width:20;stroke-linejoin:round;stroke-miterlimit:4;stroke-dasharray:none;stroke-opacity:1;paint-order:markers stroke fill"
         id="path1223" />
      <path
         d="m 97.406286,179.8959 h -4.232634 l -7.229796,-11.69122 v 11.69122 h -4.026721 v -17.03349 h 5.250753 l 6.211676,9.75794 v -9.75794 h 4.026722 z"
         style="font-style:normal;font-variant:normal;font-weight:bold;font-stretch:normal;font-size:23.4282px;font-family:sans-serif;-inkscape-font-specification:'sans-serif Bold';stroke:none;stroke-width:20;stroke-linejoin:round;stroke-miterlimit:4;stroke-dasharray:none;stroke-opacity:1;paint-order:markers stroke fill"
         id="path1225" />
      <path
         d="m 115.38926,174.54219 q 0,2.51671 -2.1392,4.09536 -2.12775,1.56722 -5.78841,1.56722 -2.11632,0 -3.69497,-0.36606 -1.56722,-0.37751 -2.93997,-0.94949 v -4.08392 h 0.48046 q 1.36131,1.08676 3.04292,1.67018 1.69306,0.58342 3.24883,0.58342 0.40039,0 1.05244,-0.0686 0.65206,-0.0686 1.06388,-0.22879 0.50334,-0.20591 0.82365,-0.51478 0.33175,-0.30887 0.33175,-0.91517 0,-0.56053 -0.48046,-0.96092 -0.46903,-0.41182 -1.38419,-0.62917 -0.96092,-0.22879 -2.03624,-0.42327 -1.06388,-0.20591 -2.00192,-0.51478 -2.15064,-0.69781 -3.10012,-1.88752 -0.93804,-1.20116 -0.93804,-2.97429 0,-2.37942 2.12775,-3.878 2.1392,-1.51002 5.49099,-1.51002 1.68161,0 3.31747,0.33174 1.64729,0.32031 2.84845,0.81221 v 3.92377 h -0.46903 q -1.02956,-0.82365 -2.52814,-1.37275 -1.48714,-0.56054 -3.04292,-0.56054 -0.5491,0 -1.09819,0.0801 -0.53766,0.0686 -1.041,0.27455 -0.44615,0.17159 -0.76645,0.52622 -0.32031,0.34318 -0.32031,0.78933 0,0.67493 0.51478,1.041 0.51478,0.35462 1.94472,0.65205 0.93805,0.19447 1.79601,0.37751 0.86941,0.18303 1.86465,0.50334 1.95616,0.64061 2.88277,1.75025 0.93804,1.09819 0.93804,2.85988 z"
         style="font-style:normal;font-variant:normal;font-weight:bold;font-stretch:normal;font-size:23.4282px;font-family:sans-serif;-inkscape-font-specification:'sans-serif Bold';stroke:none;stroke-width:20;stroke-linejoin:round;stroke-miterlimit:4;stroke-dasharray:none;stroke-opacity:1;paint-order:markers stroke fill"
         id="path1227" />
    </g>
  </g>
</svg>
