<?xml version="1.0" encoding="UTF-8" standalone="no"?>
<!-- Created with Inkscape (http://www.inkscape.org/) -->

<svg
   width="130"
   height="130"
   viewBox="0 0 34.395833 34.395833"
   version="1.1"
   id="svg1079"
   inkscape:version="1.1.1 (3bf5ae0d25, 2021-09-20)"
   sodipodi:docname="geoiplocation.svg"
   xmlns:inkscape="http://www.inkscape.org/namespaces/inkscape"
   xmlns:sodipodi="http://sodipodi.sourceforge.net/DTD/sodipodi-0.dtd"
   xmlns="http://www.w3.org/2000/svg"
   xmlns:svg="http://www.w3.org/2000/svg">
  <sodipodi:namedview
     id="namedview1081"
     pagecolor="#ffffff"
     bordercolor="#666666"
     borderopacity="1.0"
     inkscape:pageshadow="2"
     inkscape:pageopacity="0.0"
     inkscape:pagecheckerboard="0"
     inkscape:document-units="mm"
     showgrid="false"
     width="10mm"
     showguides="true"
     units="px"
     inkscape:snap-page="false"
     inkscape:snap-bbox="true"
     inkscape:zoom="2.8284271"
     inkscape:cx="66.291261"
     inkscape:cy="80.78695"
     inkscape:window-width="1920"
     inkscape:window-height="1017"
     inkscape:window-x="-8"
     inkscape:window-y="-8"
     inkscape:window-maximized="1"
     inkscape:current-layer="layer5"
     inkscape:snap-global="false">
    <inkscape:grid
       type="xygrid"
       id="grid23164" />
  </sodipodi:namedview>
  <defs
     id="defs1076">
    <marker
       style="overflow:visible"
       id="SquareM"
       refX="0.0"
       refY="0.0"
       orient="auto"
       inkscape:stockid="SquareM"
       inkscape:isstock="true">
      <path
         transform="scale(0.4)"
         style="fill-rule:evenodd;fill:context-stroke;stroke:context-stroke;stroke-width:1.0pt"
         d="M -5.0,-5.0 L -5.0,5.0 L 5.0,5.0 L 5.0,-5.0 L -5.0,-5.0 z "
         id="path10634" />
    </marker>
    <marker
       style="overflow:visible"
       id="Arrow1Lstart"
       refX="0.0"
       refY="0.0"
       orient="auto"
       inkscape:stockid="Arrow1Lstart"
       inkscape:isstock="true">
      <path
         transform="scale(0.8) translate(12.5,0)"
         style="fill-rule:evenodd;fill:context-stroke;stroke:context-stroke;stroke-width:1.0pt"
         d="M 0.0,0.0 L 5.0,-5.0 L -12.5,0.0 L 5.0,5.0 L 0.0,0.0 z "
         id="path10561" />
    </marker>
    <marker
       style="overflow:visible"
       id="DotL"
       refX="0.0"
       refY="0.0"
       orient="auto"
       inkscape:stockid="DotL"
       inkscape:isstock="true">
      <path
         transform="scale(0.8) translate(7.4, 1)"
         style="fill-rule:evenodd;fill:context-stroke;stroke:context-stroke;stroke-width:1.0pt"
         d="M -2.5,-1.0 C -2.5,1.7600000 -4.7400000,4.0 -7.5,4.0 C -10.260000,4.0 -12.5,1.7600000 -12.5,-1.0 C -12.5,-3.7600000 -10.260000,-6.0 -7.5,-6.0 C -4.7400000,-6.0 -2.5,-3.7600000 -2.5,-1.0 z "
         id="path10622" />
    </marker>
    <inkscape:path-effect
       effect="spiro"
       id="path-effect9293"
       is_visible="true"
       lpeversion="1" />
    <inkscape:path-effect
       effect="skeletal"
       id="path-effect9285"
       is_visible="true"
       lpeversion="1"
       pattern="M 0,4.9921383 C 0,2.236478 2.236478,0 4.9921383,0 c 2.7556604,0 4.9921383,2.236478 4.9921383,4.9921383 0,2.7556604 -2.2364779,4.9921383 -4.9921383,4.9921383 C 2.236478,9.9842766 0,7.7477987 0,4.9921383 Z"
       copytype="single_stretched"
       prop_scale="1"
       scale_y_rel="false"
       spacing="0"
       normal_offset="0"
       tang_offset="0"
       prop_units="false"
       vertical_pattern="false"
       hide_knot="false"
       fuse_tolerance="0" />
    <inkscape:path-effect
       effect="skeletal"
       id="path-effect9281"
       is_visible="true"
       lpeversion="1"
       pattern="M 0,4.9921383 C 0,2.236478 2.236478,0 4.9921383,0 c 2.7556604,0 4.9921383,2.236478 4.9921383,4.9921383 0,2.7556604 -2.2364779,4.9921383 -4.9921383,4.9921383 C 2.236478,9.9842766 0,7.7477987 0,4.9921383 Z"
       copytype="single_stretched"
       prop_scale="1"
       scale_y_rel="false"
       spacing="0"
       normal_offset="0"
       tang_offset="0"
       prop_units="false"
       vertical_pattern="false"
       hide_knot="false"
       fuse_tolerance="0" />
    <inkscape:path-effect
       effect="powerstroke"
       id="path-effect9277"
       is_visible="true"
       lpeversion="1"
       offset_points="1,4.99214"
       not_jump="false"
       sort_points="true"
       interpolator_type="CubicBezierJohan"
       interpolator_beta="0.2"
       start_linecap_type="zerowidth"
       linejoin_type="extrp_arc"
       miter_limit="4"
       scale_width="1"
       end_linecap_type="zerowidth" />
    <inkscape:path-effect
       effect="powerstroke"
       id="path-effect9273"
       is_visible="true"
       lpeversion="1"
       offset_points="0,4.99214"
       not_jump="false"
       sort_points="true"
       interpolator_type="CubicBezierJohan"
       interpolator_beta="0.2"
       start_linecap_type="zerowidth"
       linejoin_type="extrp_arc"
       miter_limit="4"
       scale_width="1"
       end_linecap_type="zerowidth" />
  </defs>
  <g
     inkscape:label="Layer 1"
     inkscape:groupmode="layer"
     id="layer1"
     style="display:inline">
    <rect
       style="fill:none;stroke:#000000;stroke-width:1.49281;stroke-linejoin:round;stroke-miterlimit:4;stroke-dasharray:none;stroke-opacity:1;paint-order:markers stroke fill"
       id="rect1211"
       width="32.796513"
       height="32.943047"
       x="0.82091665"
       y="0.75866783"
       rx="2.5959399"
       ry="2.6044962" />
  </g>
  <g
     inkscape:groupmode="layer"
     id="layer4"
     inkscape:label="Layer 4">
    <path
       id="rect11352"
       style="fill:none;stroke:#000000;stroke-width:4.40315;stroke-linejoin:round;paint-order:markers stroke fill"
       d="M 14.779297,10.75 C 12.685439,10.75 11,12.435439 11,14.529297 V 77.970703 C 11,80.064561 12.685439,81.75 14.779297,81.75 L 47.171339,81.573223 47.103516,41.222656 54,41.257812 V 14.529297 C 54,12.435439 52.314561,10.75 50.220703,10.75 Z"
       sodipodi:nodetypes="sssscccsss"
       transform="scale(0.26458333)" />
    <path
       id="rect11456"
       style="fill:none;stroke:#000000;stroke-width:1.18083;stroke-linejoin:round;stroke-opacity:1;paint-order:markers stroke fill"
       d="m 13.372311,10.931632 c -0.493956,0 -0.891936,0.513527 -0.891936,1.151868 v 9.128125 c 0,0.63834 0.397981,1.151317 0.891936,1.152384 l 3.826633,0.0083 c 1.289451,-3.827173 1.795592,-8.583992 2.917141,-11.440645 z"
       sodipodi:nodetypes="ssssccs" />
  </g>
  <g
     inkscape:groupmode="layer"
     id="layer3"
     inkscape:label="Layer 3">
    <path
       style="fill:none;stroke:#000000;stroke-width:1.15411;stroke-linecap:butt;stroke-linejoin:miter;stroke-miterlimit:4;stroke-dasharray:none;stroke-opacity:1"
       d="M 1.3964934,33.299231 C 28.851143,29.516318 8.8943974,5.6618078 33.057214,1.2596451"
       id="path9548"
       sodipodi:nodetypes="cc" />
  </g>
  <g
     inkscape:groupmode="layer"
     id="layer2"
     inkscape:label="Layer 2"
     style="display:inline">
    <rect
       style="fill:none;stroke:#000000;stroke-width:0.372;stroke-linejoin:round;stroke-miterlimit:4;stroke-dasharray:none;stroke-dashoffset:0;stroke-opacity:1;paint-order:markers stroke fill"
       id="rect22779"
       width="2.2275367"
       height="1.6929278"
       x="4.365653"
       y="4.8246617"
       ry="0" />
    <rect
       style="display:inline;fill:none;stroke:#000000;stroke-width:0.372;stroke-linejoin:round;stroke-miterlimit:4;stroke-dasharray:none;stroke-dashoffset:0;stroke-opacity:1;paint-order:markers stroke fill"
       id="rect22779-6"
       width="2.2275367"
       height="1.6929278"
       x="7.4615998"
       y="4.8246617"
       ry="0" />
    <rect
       style="display:inline;fill:none;stroke:#000000;stroke-width:0.372;stroke-linejoin:round;stroke-miterlimit:4;stroke-dasharray:none;stroke-dashoffset:0;stroke-opacity:1;paint-order:markers stroke fill"
       id="rect22779-4"
       width="2.2275367"
       height="1.6929278"
       x="13.755289"
       y="12.343287"
       ry="0" />
    <rect
       style="display:inline;fill:none;stroke:#000000;stroke-width:0.372;stroke-linejoin:round;stroke-miterlimit:4;stroke-dasharray:none;stroke-dashoffset:0;stroke-opacity:1;paint-order:markers stroke fill"
       id="rect22779-6-1"
       width="2.2275367"
       height="1.6929278"
       x="16.851236"
       y="12.343287"
       ry="0" />
    <rect
       style="display:inline;fill:none;stroke:#000000;stroke-width:0.372;stroke-linejoin:round;stroke-miterlimit:4;stroke-dasharray:none;stroke-dashoffset:0;stroke-opacity:1;paint-order:markers stroke fill"
       id="rect22779-0"
       width="2.2275367"
       height="1.6929278"
       x="4.3563247"
       y="8.1318903"
       ry="0" />
    <rect
       style="display:inline;fill:none;stroke:#000000;stroke-width:0.372;stroke-linejoin:round;stroke-miterlimit:4;stroke-dasharray:none;stroke-dashoffset:0;stroke-opacity:1;paint-order:markers stroke fill"
       id="rect22779-6-3"
       width="2.2275367"
       height="1.6929278"
       x="7.4569364"
       y="8.1318903"
       ry="0" />
    <rect
       style="display:inline;fill:none;stroke:#000000;stroke-width:0.372;stroke-linejoin:round;stroke-miterlimit:4;stroke-dasharray:none;stroke-dashoffset:0;stroke-opacity:1;paint-order:markers stroke fill"
       id="rect22779-6-2"
       width="2.2275367"
       height="1.6929278"
       x="10.557549"
       y="4.8246617"
       ry="0" />
    <rect
       style="display:inline;fill:none;stroke:#000000;stroke-width:0.372;stroke-linejoin:round;stroke-miterlimit:4;stroke-dasharray:none;stroke-dashoffset:0;stroke-opacity:1;paint-order:markers stroke fill"
       id="rect22779-6-3-3"
       width="2.2275367"
       height="1.6929278"
       x="10.557549"
       y="8.1318903"
       ry="0" />
    <rect
       style="display:inline;fill:none;stroke:#000000;stroke-width:0.372;stroke-linejoin:round;stroke-miterlimit:4;stroke-dasharray:none;stroke-dashoffset:0;stroke-opacity:1;paint-order:markers stroke fill"
       id="rect22779-04"
       width="2.2275367"
       height="1.6929278"
       x="4.3560772"
       y="11.43912"
       ry="0" />
    <rect
       style="display:inline;fill:none;stroke:#000000;stroke-width:0.372;stroke-linejoin:round;stroke-miterlimit:4;stroke-dasharray:none;stroke-dashoffset:0;stroke-opacity:1;paint-order:markers stroke fill"
       id="rect22779-6-8"
       width="2.2275367"
       height="1.6929278"
       x="7.4568133"
       y="11.43912"
       ry="0" />
    <rect
       style="display:inline;fill:none;stroke:#000000;stroke-width:0.372;stroke-linejoin:round;stroke-miterlimit:4;stroke-dasharray:none;stroke-dashoffset:0;stroke-opacity:1;paint-order:markers stroke fill"
       id="rect22779-0-7"
       width="2.2275367"
       height="1.6929278"
       x="4.3467488"
       y="14.746348"
       ry="0" />
    <rect
       style="display:inline;fill:none;stroke:#000000;stroke-width:0.372;stroke-linejoin:round;stroke-miterlimit:4;stroke-dasharray:none;stroke-dashoffset:0;stroke-opacity:1;paint-order:markers stroke fill"
       id="rect22779-6-3-33"
       width="2.2275367"
       height="1.6929278"
       x="7.4521494"
       y="14.746348"
       ry="0" />
    <rect
       style="display:inline;fill:none;stroke:#000000;stroke-width:0.372;stroke-linejoin:round;stroke-miterlimit:4;stroke-dasharray:none;stroke-dashoffset:0;stroke-opacity:1;paint-order:markers stroke fill"
       id="rect22779-6-2-0"
       width="2.2275367"
       height="1.6929278"
       x="10.557549"
       y="11.43912"
       ry="0" />
    <rect
       style="display:inline;fill:none;stroke:#000000;stroke-width:0.372;stroke-linejoin:round;stroke-miterlimit:4;stroke-dasharray:none;stroke-dashoffset:0;stroke-opacity:1;paint-order:markers stroke fill"
       id="rect22779-6-3-3-0"
       width="2.2275367"
       height="1.6929278"
       x="10.557549"
       y="14.746348"
       ry="0" />
    <rect
       style="fill:none;stroke:#000000;stroke-width:0.371999;stroke-linejoin:round;stroke-miterlimit:4;stroke-dasharray:none;stroke-dashoffset:0;stroke-opacity:1;paint-order:markers stroke fill"
       id="rect23551"
       width="4.2094951"
       height="3.5079124"
       x="6.4077868"
       y="18.287918" />
    <rect
       style="display:inline;fill:none;stroke:#000000;stroke-width:0.372;stroke-linejoin:round;stroke-miterlimit:4;stroke-dasharray:none;stroke-dashoffset:0;stroke-opacity:1;paint-order:markers stroke fill"
       id="rect22779-2"
       width="2.2275367"
       height="1.6929278"
       x="13.708516"
       y="14.868984"
       ry="0" />
    <rect
       style="display:inline;fill:none;stroke:#000000;stroke-width:0.372;stroke-linejoin:round;stroke-miterlimit:4;stroke-dasharray:none;stroke-dashoffset:0;stroke-opacity:1;paint-order:markers stroke fill"
       id="rect22779-6-0"
       width="2.2275367"
       height="1.6929278"
       x="16.804464"
       y="14.868984"
       ry="0" />
    <path
       id="rect23927"
       style="fill:none;stroke:#000000;stroke-width:0.371999;stroke-linejoin:round;paint-order:markers stroke fill"
       d="m 15.64349,18.289322 h 2.513542 l -0.765894,3.627818 -1.747648,0.274786 z"
       sodipodi:nodetypes="ccccc" />
  </g>
  <g
     inkscape:groupmode="layer"
     id="layer5"
     inkscape:label="street"
     style="display:inline">
    <path
       style="display:inline;fill:none;stroke:#000000;stroke-width:0.365;stroke-linecap:butt;stroke-linejoin:miter;stroke-miterlimit:4;stroke-dasharray:2.19, 2.19;stroke-dashoffset:0;stroke-opacity:1"
       d="M 2.1982918,27.221402 H 14.546144"
       id="path24487" />
    <path
       id="rect18924"
       style="display:inline;fill:none;stroke:#000000;stroke-width:0.709546;stroke-linejoin:round;paint-order:markers stroke fill"
       d="M 1.6861759,24.209375 H 16.504738 c -1.623119,2.779731 -2.738633,3.876495 -4.977357,5.956397 l -9.8412051,0.06287 c -0.5075097,0.0032 -0.91610198,-0.513898 -0.91610198,-1.152239 v -3.714792 c 0,-0.638341 0.44393108,-1.30928 0.91610198,-1.15224 1.3e-6,0 0,4e-6 0,4e-6 z"
       sodipodi:nodetypes="sccsssas"
       inkscape:original-d="M 1.6861759,24.209375 H 16.504738 c -1.623119,2.779731 -2.738633,3.876495 -4.977357,5.956397 l -9.8412051,0.06287 c -0.5075097,0.0032 -0.91610198,-0.513898 -0.91610198,-1.152239 v -3.714792 c 0,-0.638341 0.44393108,-1.30928 0.91610198,-1.15224 1.3e-6,0 0,4e-6 0,4e-6 z" />
    <g
       id="g25734">
      <path
         id="path4631"
         style="fill:none;stroke:#000000;stroke-width:0.7;stroke-linejoin:round;stroke-miterlimit:4;stroke-dasharray:none;paint-order:markers stroke fill"
         d="m 20.436043,6.0661664 c -0.424816,1.585431 -2.323333,3.624085 -2.323333,3.624085 0,0 -1.939117,-2.362954 -2.277037,-3.624085 -0.421337,-1.572453 0.649114,-2.947615 2.277037,-2.947615 1.627921,0 2.744669,1.375162 2.323333,2.947615 z"
         sodipodi:nodetypes="scsss" />
      <path
         id="path6411"
         style="fill:none;stroke:#000000;stroke-width:0.7;stroke-linejoin:round;stroke-miterlimit:4;stroke-dasharray:none;paint-order:markers stroke fill"
         d="m 19.398347,5.3544374 a 1.2727569,1.2727569 0 0 1 -1.272757,1.272757 1.2727569,1.2727569 0 0 1 -1.272757,-1.272757 1.2727569,1.2727569 0 0 1 1.272757,-1.272757 1.2727569,1.2727569 0 0 1 1.272757,1.272757 z" />
    </g>
    <path
       id="path26825"
       style="fill:none;fill-opacity:1;stroke:#000000;stroke-width:1.70078742;stroke-miterlimit:4;stroke-dasharray:none;stroke-opacity:1"
       d="M 99.414062 16.988281 C 99.024867 17.009824 98.587141 17.143924 97.927734 17.402344 C 97.121032 17.718463 96.71538 17.791407 96.484375 17.662109 C 96.307693 17.563237 95.327963 17.437023 94.308594 17.380859 C 93.797882 17.352721 93.31118 17.302983 92.935547 17.246094 C 92.75434 17.395078 92.566426 17.552439 92.380859 17.707031 C 92.840931 17.822808 93.402179 17.894556 94.205078 17.947266 C 95.201811 18.012727 96.190829 18.161136 96.404297 18.275391 C 96.787647 18.480551 97.701625 18.256549 98.9375 17.65625 C 99.268923 17.495242 99.564256 17.524357 100.29492 17.787109 C 100.90167 18.005377 101.51397 18.089354 102.04688 18.029297 C 102.5412 17.973587 102.93272 18.020626 103.03125 18.146484 C 103.2826 18.467502 103.47364 19.358529 103.54492 20.542969 C 103.61861 21.767178 103.42918 21.789787 102.91016 20.619141 C 102.47266 19.632351 102.07762 19.302295 101.50781 19.445312 C 100.65244 19.660001 100.7358 20.21402 101.86914 21.828125 C 102.18382 22.276286 102.53319 22.903248 102.64453 23.222656 C 102.8823 23.904721 104.51986 26.372052 105.05078 26.847656 C 105.29615 27.067443 105.38896 27.330565 105.33008 27.638672 C 105.25826 28.01438 105.44956 28.297935 106.35352 29.164062 C 107.14637 29.923751 107.499 30.4154 107.58789 30.878906 C 108.00641 33.061126 108.35925 34.090717 108.7832 34.378906 C 109.73569 35.026407 110.6664 36.058498 110.67773 36.476562 C 110.6842 36.714159 110.91529 37.360177 111.18945 37.912109 C 111.60161 38.741882 111.81226 38.959124 112.41406 39.166016 C 112.81436 39.303632 113.65516 39.894491 114.28125 40.480469 C 114.90734 41.066443 115.73942 41.789207 116.13086 42.085938 L 116.84375 42.625 L 116.2207 43.132812 C 115.68344 43.571268 115.63235 43.68237 115.8457 43.939453 C 115.98161 44.10322 116.23375 44.236328 116.40625 44.236328 C 116.57875 44.236328 116.95702 44.485302 117.24805 44.789062 C 117.53907 45.092831 118.05924 45.43364 118.40234 45.546875 C 118.93136 45.721451 119.13777 45.693524 119.76758 45.365234 C 120.17608 45.1523 120.7618 44.978516 121.06836 44.978516 C 121.37493 44.978516 121.81109 44.861881 122.03711 44.71875 C 122.26311 44.575604 123.13748 44.367721 123.98047 44.257812 C 125.4968 44.060071 126.62305 43.654596 126.62305 43.304688 C 126.62305 43.205248 126.68775 43.123047 126.76758 43.123047 C 126.84744 43.123047 126.92919 43.499798 126.94922 43.958984 C 126.96921 44.418186 126.90454 44.792969 126.80469 44.792969 C 126.70487 44.792969 126.62305 45.170286 126.62305 45.630859 C 126.62305 46.091433 126.54092 46.611878 126.44141 46.789062 C 126.01261 47.55247 124.62213 50.677616 124.52148 51.103516 C 124.4609 51.359862 124.0317 52.013829 123.56836 52.556641 C 123.10503 53.099453 122.72656 53.67285 122.72656 53.830078 C 122.72656 54.174442 120.35741 56.480469 120.00391 56.480469 C 119.50498 56.480469 118.20937 57.616986 116.7832 59.302734 C 115.16462 61.215927 113.29908 63.160156 113.08398 63.160156 C 113.00725 63.160156 112.81309 63.622396 112.65234 64.1875 C 112.49159 64.752596 112.18437 65.358513 111.96875 65.533203 C 111.61996 65.815768 111.47987 66.17439 111.0957 67.759766 C 111.03572 68.007139 111.10944 68.316303 111.27344 68.501953 C 111.4692 68.723604 111.59024 69.436873 111.67188 70.853516 C 111.79649 73.01567 112.00601 73.592785 112.79688 73.953125 C 113.13892 74.108887 113.20689 74.24314 113.10352 74.548828 C 112.9354 75.045949 112.9757 78.676254 113.15625 79.322266 C 113.24976 79.656871 113.18704 79.972021 112.95312 80.345703 C 112.31291 81.368364 111.71043 82.083984 111.49023 82.083984 C 111.36886 82.083984 111.16779 82.205472 111.04492 82.353516 C 110.92204 82.50156 110.46349 82.676499 110.02539 82.742188 C 109.43788 82.830292 108.99449 83.076864 108.33789 83.679688 C 107.84828 84.129198 107.3744 84.496094 107.2832 84.496094 C 107.06738 84.496094 104.94471 86.528572 104.70312 86.966797 C 104.56808 87.211744 104.59683 87.426775 104.80859 87.75 C 104.96892 87.994671 105.10429 88.383991 105.10742 88.617188 C 105.11067 88.850369 105.22752 89.194 105.36914 89.380859 C 105.54459 89.612352 105.57918 89.879436 105.47656 90.216797 C 105.39372 90.489119 105.223 91.185457 105.0957 91.763672 C 104.86629 92.805669 104.85561 92.816106 104.00781 93.027344 C 103.53737 93.144562 102.94457 93.380098 102.68945 93.550781 C 102.43435 93.721465 102.05761 93.950613 101.85352 94.058594 C 101.58713 94.199529 101.49736 94.40927 101.53516 94.802734 C 101.63849 95.883403 101.59217 96.294009 101.30859 96.837891 C 101.15023 97.141579 101.02009 97.487472 101.01953 97.605469 C 101.0189 97.72345 100.61791 98.108232 100.12695 98.460938 C 99.514394 98.901018 99.068215 99.430739 98.705078 100.14844 C 98.414039 100.72367 98.102491 101.19531 98.013672 101.19531 C 97.924842 101.19531 97.306925 101.71575 96.640625 102.35352 C 95.367468 103.57214 94.496055 104.14113 93.876953 104.15625 C 93.672866 104.16116 93.268368 104.28827 92.978516 104.43945 C 92.661489 104.6048 91.626236 104.76364 90.380859 104.83594 C 89.242144 104.90204 88.200542 105.04223 88.066406 105.14844 C 87.932248 105.25464 87.390439 105.40211 86.861328 105.47656 C 86.332209 105.55106 85.7632 105.66586 85.597656 105.73242 C 85.385697 105.8176 85.069587 105.59099 84.53125 104.96289 C 83.753045 104.05495 83.619632 103.71856 83.951172 103.51367 C 84.305574 103.29464 84.131309 102.55703 83.46875 101.46094 C 83.102283 100.85469 82.557314 99.81757 82.255859 99.154297 C 81.954408 98.491028 81.386569 97.613248 80.994141 97.205078 C 80.074631 96.248691 79.733199 95.552574 79.578125 94.3125 C 79.509134 93.760821 79.337977 92.854034 79.197266 92.296875 C 79.056516 91.739716 78.941406 90.899928 78.941406 90.431641 C 78.941406 89.719634 78.781338 89.332882 77.966797 88.072266 C 74.973403 83.439589 75.034637 83.559829 75.154297 82.548828 C 75.214698 82.038445 75.414866 81.203569 75.599609 80.693359 C 75.784368 80.18315 76.027176 79.267652 76.138672 78.658203 C 76.310678 77.71825 76.459012 77.441977 77.111328 76.845703 C 77.864645 76.1571 77.877867 76.122946 77.779297 75.167969 C 77.723953 74.631797 77.45945 73.781465 77.191406 73.277344 C 76.80117 72.543137 76.726668 72.20921 76.818359 71.597656 C 77.061387 69.977055 75.746795 66.819921 74.117188 65.109375 C 73.533901 64.497122 72.624482 63.365638 72.095703 62.595703 L 71.132812 61.195312 L 71.419922 60.097656 C 71.57715 59.494092 71.705078 58.779523 71.705078 58.507812 C 71.705078 58.236098 71.882148 57.614138 72.097656 57.126953 C 72.371634 56.507598 72.458997 56.021592 72.390625 55.511719 C 72.374842 55.394048 72.347842 55.281158 72.316406 55.169922 C 71.54379 58.315336 71.064453 60.457031 71.064453 60.457031 L 70.722656 60.433594 C 70.650246 60.756032 70.59462 61.038548 70.59375 61.140625 C 70.590439 61.589429 72.320083 64.121073 73.527344 65.435547 C 75.207499 67.264918 76.470241 70.210988 76.224609 71.724609 C 76.144929 72.215608 76.263275 72.707059 76.695312 73.691406 C 77.45183 75.415551 77.448375 76.099575 76.679688 76.382812 C 76.164984 76.572454 75.793983 77.314239 75.492188 78.761719 C 75.335522 79.513108 75.094656 80.38093 74.955078 80.689453 C 74.602373 81.469155 74.423367 83.374802 74.648438 83.966797 C 74.751055 84.236708 75.098549 84.821478 75.419922 85.265625 C 75.741288 85.709772 76.538859 86.950045 77.193359 88.021484 C 78.1384 89.568558 78.384724 90.123512 78.384766 90.71875 C 78.384803 91.130991 78.499913 91.925263 78.640625 92.482422 C 78.781337 93.039581 78.952357 93.947157 79.021484 94.5 C 79.193305 95.873786 79.492299 96.516039 80.482422 97.630859 C 80.947614 98.154645 81.505421 98.982082 81.720703 99.470703 C 81.935993 99.959328 82.457998 100.93328 82.880859 101.63477 C 83.58251 102.79871 83.622086 102.92944 83.335938 103.13867 C 83.163478 103.26476 83.023438 103.5197 83.023438 103.70312 C 83.023438 104.06644 84.379088 105.91787 84.859375 106.21094 C 85.022991 106.31072 85.406749 106.34163 85.712891 106.27734 C 86.019013 106.21305 86.646283 106.10147 87.105469 106.03125 C 87.564659 105.96103 88.106452 105.81528 88.310547 105.70703 C 88.514634 105.59879 89.635126 105.45195 90.800781 105.38086 C 92.153637 105.29836 93.058098 105.15629 93.300781 104.98633 C 93.50988 104.83983 93.832117 104.71875 94.017578 104.71875 C 95.121555 104.71875 98.640003 101.78048 99.349609 100.26562 C 99.630549 99.665806 99.996377 99.26232 100.57617 98.912109 C 101.03013 98.637908 101.44539 98.267229 101.5 98.087891 C 101.5546 97.908567 101.73783 97.481059 101.90625 97.138672 C 102.07606 96.793404 102.21289 96.070698 102.21289 95.515625 C 102.21289 94.811435 102.2851 94.515625 102.45703 94.515625 C 102.59143 94.515625 102.74687 94.395587 102.80273 94.25 C 102.8586 94.104431 103.46877 93.814892 104.1582 93.605469 L 105.41016 93.224609 L 105.64062 92.154297 C 105.7671 91.565386 105.96339 90.765768 106.07617 90.376953 C 106.2461 89.791312 106.22697 89.577742 105.96875 89.140625 C 105.79731 88.850425 105.6582 88.414382 105.6582 88.169922 C 105.6582 87.925458 105.5586 87.625002 105.4375 87.503906 C 105.26762 87.33402 105.32111 87.166679 105.66992 86.771484 C 105.91858 86.489781 106.23363 86.188983 106.37109 86.101562 C 106.50855 86.014157 106.79521 85.742545 107.00781 85.498047 C 107.22039 85.253564 107.46983 85.052734 107.5625 85.052734 C 107.65519 85.052734 108.15309 84.684781 108.66797 84.234375 C 109.22404 83.747946 109.87142 83.364603 110.26367 83.291016 C 111.37921 83.081743 112.2627 82.433665 113.08789 81.216797 C 113.78535 80.188278 113.85756 79.98038 113.74414 79.355469 C 113.57864 78.442728 113.56252 74.747406 113.72266 74.488281 C 113.91943 74.169898 113.64947 73.579928 113.25 73.453125 C 112.57087 73.237575 112.35504 72.605989 112.23633 70.486328 C 112.15304 68.999564 112.04686 68.390595 111.84375 68.232422 C 111.62877 68.065034 111.611 67.92957 111.76562 67.640625 C 111.87572 67.434886 111.9668 67.066272 111.9668 66.822266 C 111.9668 66.578237 112.17158 66.186195 112.42383 65.949219 C 112.67609 65.712235 113.01075 65.080918 113.16602 64.546875 C 113.36228 63.871761 113.56149 63.546207 113.82031 63.478516 C 114.02505 63.42496 114.19141 63.262548 114.19141 63.117188 C 114.19141 62.971797 114.40818 62.736831 114.67188 62.595703 C 114.93559 62.454564 115.32813 62.085161 115.54492 61.775391 C 116.13479 60.93253 118.42742 58.302876 118.98828 57.826172 C 119.25824 57.596717 119.81449 57.249447 120.22266 57.054688 C 121.13567 56.619059 122.94668 54.90768 123.25195 54.191406 C 123.37583 53.900764 123.79966 53.273503 124.19336 52.798828 C 124.58706 52.324157 125.0143 51.601526 125.14258 51.193359 C 125.27086 50.785193 125.69778 49.806139 126.0918 49.017578 C 126.48584 48.229021 126.80859 47.458035 126.80859 47.302734 C 126.80859 47.147434 126.89209 47.019531 126.99414 47.019531 C 127.09619 47.019531 127.17969 46.631653 127.17969 46.158203 C 127.17969 45.663489 127.28449 45.210172 127.42773 45.091797 C 127.61029 44.940933 127.64901 44.588742 127.56836 43.773438 C 127.46067 42.684824 127.4448 42.6575 126.86719 42.601562 C 126.42717 42.558967 126.22592 42.640123 126.07617 42.919922 C 125.84869 43.344979 125.03859 43.593369 123.2832 43.775391 C 122.61993 43.844189 121.89203 44.018714 121.66602 44.162109 C 121.44001 44.305542 121.0401 44.421875 120.77734 44.421875 C 120.51458 44.421875 119.98354 44.583392 119.5957 44.78125 C 118.9585 45.106327 118.83899 45.115856 118.36719 44.871094 C 118.08002 44.722109 117.65437 44.393589 117.41992 44.140625 C 117.18549 43.887661 116.88741 43.679688 116.75781 43.679688 C 116.62817 43.679688 116.70682 43.549479 116.93359 43.390625 C 117.56147 42.950839 117.45903 42.298314 116.66797 41.693359 C 116.29534 41.408394 115.3865 40.623282 114.64648 39.949219 C 113.86424 39.236691 113.06609 38.678062 112.74219 38.613281 C 112.2904 38.522924 112.09524 38.309114 111.70508 37.484375 C 111.44048 36.925009 111.22461 36.290521 111.22461 36.074219 C 111.22461 35.646558 109.80787 34.138449 109.23633 33.957031 C 108.97557 33.874271 108.80052 33.475145 108.55273 32.408203 C 108.0446 30.220314 107.72525 29.448833 107.11523 28.935547 C 106.80861 28.677568 106.49934 28.466797 106.42969 28.466797 C 106.35999 28.466797 106.19971 28.299798 106.07227 28.095703 C 105.88675 27.798734 105.88736 27.64775 106.07422 27.341797 C 106.27974 27.00526 106.24652 26.915765 105.80078 26.587891 C 105.17076 26.124441 103.37344 23.576129 103.09375 22.75 C 102.89975 22.176846 102.91042 22.144968 103.25977 22.255859 C 103.92319 22.466424 104.16986 22.039188 104.15625 20.699219 C 104.14394 19.488765 103.79069 18.04495 103.38867 17.560547 C 103.24276 17.384685 102.91452 17.349285 102.24023 17.431641 C 101.57827 17.512485 101.09142 17.458265 100.60742 17.253906 C 100.14276 17.057702 99.803258 16.966739 99.414062 16.988281 z M 101.75781 20.117188 C 101.85814 20.117188 102.1516 20.534711 102.41016 21.044922 C 102.66869 21.555132 102.83918 21.972656 102.78906 21.972656 C 102.73895 21.972656 102.57669 21.737257 102.42773 21.449219 C 102.27878 21.16117 102.02699 20.816217 101.86719 20.683594 C 101.54007 20.412141 101.48251 20.117188 101.75781 20.117188 z M 124.72656 76.070312 C 124.37901 76.084869 123.85446 76.805009 123.80273 77.423828 C 123.75936 77.942871 123.66134 78.102637 123.375 78.123047 C 123.17092 78.137674 122.901 78.157008 122.77344 78.167969 C 122.64384 78.17899 122.54102 78.435039 122.54102 78.746094 C 122.54102 79.117149 122.44726 79.300781 122.26172 79.300781 C 122.08858 79.300781 121.98438 79.47702 121.98438 79.765625 C 121.98437 80.138211 121.89094 80.228516 121.51367 80.228516 C 121.25538 80.228516 120.99575 80.356821 120.93555 80.513672 C 120.80115 80.863924 119.89843 81.255982 118.81055 81.435547 C 117.82534 81.598172 117.53125 81.811641 117.53125 82.361328 C 117.53125 82.590179 117.36425 82.988582 117.16016 83.248047 C 116.71825 83.809843 116.65097 85.349923 117.04492 85.888672 C 117.33926 86.291203 117.14948 87.068824 116.57422 87.814453 C 116.38645 88.057802 116.23242 88.337166 116.23242 88.435547 C 116.23242 88.533909 115.9735 88.857944 115.65625 89.154297 C 115.14397 89.632861 115.09208 89.771256 115.20312 90.388672 C 115.27187 90.771016 115.36858 91.583063 115.41602 92.195312 C 115.54822 93.900858 115.63017 94.109629 116.375 94.597656 C 116.98829 94.999496 117.20519 95.037507 118.27344 94.943359 C 119.92726 94.797583 119.98414 94.725564 122.07812 90.0625 C 123.8124 86.200454 124.11067 85.584061 124.34375 85.390625 C 124.47395 85.282546 124.58203 84.874029 124.58203 84.484375 C 124.58203 84.094728 124.66553 83.72519 124.76758 83.662109 C 125.05474 83.484645 124.98591 82.682904 124.63672 82.125 L 124.32227 81.621094 L 124.79492 82.042969 C 125.08765 82.305155 125.38442 82.420046 125.57812 82.345703 C 125.96394 82.197655 126.27878 81.639668 126.16211 81.310547 C 126.11426 81.175606 125.99819 80.269796 125.90234 79.298828 C 125.74073 77.66196 125.34808 76.456411 124.86328 76.109375 C 124.82274 76.080355 124.77621 76.068233 124.72656 76.070312 z M 124.64062 77.011719 C 124.72751 77.03635 124.83103 77.160846 124.9375 77.394531 C 125.30399 78.198913 125.6536 81.712891 125.36719 81.712891 C 125.28933 81.712891 125.14369 81.526481 125.04297 81.296875 C 124.78555 80.710134 124.18733 80.7603 123.97852 81.386719 C 123.85598 81.754285 123.89064 82.053752 124.09961 82.472656 C 124.30412 82.882588 124.33542 83.150701 124.20703 83.390625 C 124.10733 83.576967 124.02539 83.980287 124.02539 84.287109 C 124.02539 84.593916 123.94957 84.892261 123.85742 84.949219 C 123.62466 85.093071 122.35547 87.621696 122.35547 87.941406 C 122.35547 88.160698 120.98447 91.19788 120.47656 92.103516 C 120.3907 92.256575 120.19879 92.631358 120.05078 92.9375 C 119.90277 93.243623 119.63047 93.67184 119.44531 93.888672 C 119.21748 94.155495 118.80819 94.315827 118.17969 94.384766 C 117.36527 94.474083 117.17589 94.425303 116.64648 93.990234 C 116.08502 93.528792 116.04345 93.416099 116.04492 92.363281 C 116.04583 91.740748 115.94999 90.953653 115.83203 90.615234 C 115.63737 90.0569 115.6595 89.963908 116.06641 89.613281 C 116.64285 89.11658 117.42617 87.776012 117.72656 86.769531 C 117.93183 86.081854 117.92264 85.93912 117.6543 85.642578 C 117.24517 85.190524 117.26446 84.384239 117.70703 83.476562 C 117.90604 83.068392 118.10911 82.595734 118.1582 82.427734 C 118.2186 82.221157 118.55128 82.081637 119.1875 81.994141 C 119.70486 81.922972 120.17528 81.787798 120.23242 81.695312 C 120.28958 81.602827 120.49328 81.527344 120.68555 81.527344 C 120.87783 81.527344 121.1638 81.344539 121.32031 81.121094 C 121.4768 80.897648 121.65978 80.771106 121.72656 80.837891 C 121.93559 81.046914 122.54102 80.603699 122.54102 80.242188 C 122.54102 80.052629 122.66529 79.849749 122.81836 79.791016 C 122.97143 79.732282 123.09766 79.473137 123.09766 79.214844 C 123.09766 78.848449 123.19054 78.746094 123.52344 78.746094 C 124.11359 78.746094 124.39648 78.407506 124.39648 77.699219 C 124.39648 77.210261 124.49581 76.970667 124.64062 77.011719 z "
       transform="scale(0.26458333)" />
    <circle
       id="path27322"
       style="fill:#000000;stroke:#000000;stroke-width:0.264583"
       cx="18.942726"
       cy="15.715447"
       r="0.0058866208" />
    <circle
       id="path27324"
       style="fill:#000000;stroke:#000000;stroke-width:0.264583"
       cx="18.942726"
       cy="15.715447"
       r="0.0058866208" />
    <circle
       id="path27326"
       style="fill:#000000;stroke:#000000;stroke-width:0.264583"
       cx="25.350513"
       cy="4.0224066"
       r="0.0058866208" />
    <circle
       id="path27328"
       style="fill:#000000;stroke:#000000;stroke-width:0.264583"
       cx="25.350513"
       cy="4.0224066"
       r="0.0058866208" />
    <g
       id="g28095"
       transform="translate(6.5948756,13.049435)">
      <path
         id="path28091"
         style="fill:none;stroke:#000000;stroke-width:0.7;stroke-linejoin:round;stroke-miterlimit:4;stroke-dasharray:none;paint-order:markers stroke fill"
         d="m 20.436043,6.0661664 c -0.424816,1.585431 -2.323333,3.624085 -2.323333,3.624085 0,0 -1.939117,-2.362954 -2.277037,-3.624085 -0.421337,-1.572453 0.649114,-2.947615 2.277037,-2.947615 1.627921,0 2.744669,1.375162 2.323333,2.947615 z"
         sodipodi:nodetypes="scsss" />
      <path
         id="path28093"
         style="fill:none;stroke:#000000;stroke-width:0.7;stroke-linejoin:round;stroke-miterlimit:4;stroke-dasharray:none;paint-order:markers stroke fill"
         d="m 19.398347,5.3544374 a 1.2727569,1.2727569 0 0 1 -1.272757,1.272757 1.2727569,1.2727569 0 0 1 -1.272757,-1.272757 1.2727569,1.2727569 0 0 1 1.272757,-1.272757 1.2727569,1.2727569 0 0 1 1.272757,1.272757 z" />
    </g>
    <path
       style="fill:none;stroke:#000000;stroke-width:0.264583px;stroke-linecap:butt;stroke-linejoin:miter;stroke-opacity:1"
       d="m 16.137636,27.37692 0.959115,0.959115 0.429947,-1.157552 1.058334,1.124479 0.396875,-1.389062 0.79375,1.25677"
       id="path29549" />
    <path
       style="fill:none;stroke:#000000;stroke-width:0.264583px;stroke-linecap:butt;stroke-linejoin:miter;stroke-opacity:1"
       d="m 20.347131,31.118693 0.959115,0.959115 0.429947,-1.157552 1.058334,1.124479 0.396875,-1.389062 0.79375,1.25677"
       id="path29631" />
    <path
       style="fill:none;stroke:#000000;stroke-width:0.264583px;stroke-linecap:butt;stroke-linejoin:miter;stroke-opacity:1"
       d="m 26.14688,29.154262 0.959115,0.959115 0.429947,-1.157552 1.058334,1.124479 0.396875,-1.389062 0.79375,1.25677"
       id="path29633" />
    <path
       style="fill:none;stroke:#000000;stroke-width:0.264583px;stroke-linecap:butt;stroke-linejoin:miter;stroke-opacity:1"
       d="m 29.327387,6.8907107 0.959115,0.959115 0.429947,-1.157552 1.058334,1.124479 0.396875,-1.389062 0.79375,1.25677"
       id="path29635" />
  </g>
  <g
     inkscape:groupmode="layer"
     id="layer6"
     inkscape:label="marker" />
</svg>
